HIERARCHY
ROOT root     
{
	OFFSET 0.0000 0.0000 0.0000
	CHANNELS 6 Xposition Yposition Zposition Zrotation Yrotation Xrotation
	JOINT pelvis   
	{
		OFFSET 0.0000 0.0000 0.0000
		CHANNELS 3 Zrotation Yrotation Xrotation
		JOINT thorax   
		{
			OFFSET 0.0000 23.0750 -5.0000
			CHANNELS 3 Zrotation Yrotation Xrotation
			JOINT rclavicle
			{
				OFFSET 0.0000 28.0009 0.0000
				CHANNELS 3 Zrotation Yrotation Xrotation
				JOINT rhumerus 
				{
					OFFSET -18.5725 5.5939 0.0000
					CHANNELS 3 Zrotation Yrotation Xrotation
					JOINT rradius  
					{
						OFFSET -24.8459 0.0000 0.0000
						CHANNELS 3 Zrotation Yrotation Xrotation
						JOINT rhand    
						{
							OFFSET -24.5477 0.0000 0.0000
							CHANNELS 3 Zrotation Yrotation Xrotation
							End Site
							{
								OFFSET -8.1826 0.0000 0.0000
							}
						}
					}
				}
			}
			JOINT lclavicle
			{
				OFFSET 0.0000 28.0009 0.0000
				CHANNELS 3 Zrotation Yrotation Xrotation
				JOINT lhumerus 
				{
					OFFSET 18.5725 5.5939 0.0000
					CHANNELS 3 Zrotation Yrotation Xrotation
					JOINT lradius  
					{
						OFFSET 24.8459 0.0000 0.0000
						CHANNELS 3 Zrotation Yrotation Xrotation
						JOINT lhand    
						{
							OFFSET 24.5477 0.0000 0.0000
							CHANNELS 3 Zrotation Yrotation Xrotation
							End Site
							{
								OFFSET 8.1826 0.0000 0.0000
							}
						}
					}
				}
			}
			JOINT head     
			{
				OFFSET 0.0000 35.2030 0.0000
				CHANNELS 3 Zrotation Yrotation Xrotation
				End Site
				{
					OFFSET 0.0000 11.7343 0.0000
				}
			}
		}
		JOINT rfemur   
		{
			OFFSET -8.2817 0.0000 0.0000
			CHANNELS 3 Zrotation Yrotation Xrotation
			JOINT rtibia   
			{
				OFFSET 0.0000 -43.3627 0.0000
				CHANNELS 3 Zrotation Yrotation Xrotation
				JOINT rfoot    
				{
					OFFSET 0.0000 -38.2947 0.0000
					CHANNELS 3 Zrotation Yrotation Xrotation
					JOINT rtoes    
					{
						OFFSET 0.0000 0.0000 16.6054
						CHANNELS 3 Zrotation Yrotation Xrotation
						End Site
						{
							OFFSET 0.0000 0.0000 5.5351
						}
					}
				}
			}
		}
		JOINT lfemur   
		{
			OFFSET 8.2817 0.0000 0.0000
			CHANNELS 3 Zrotation Yrotation Xrotation
			JOINT ltibia   
			{
				OFFSET 0.0000 -43.3627 0.0000
				CHANNELS 3 Zrotation Yrotation Xrotation
				JOINT lfoot    
				{
					OFFSET 0.0000 -38.2947 0.0000
					CHANNELS 3 Zrotation Yrotation Xrotation
					JOINT ltoes    
					{
						OFFSET 0.0000 0.0000 16.6054
						CHANNELS 3 Zrotation Yrotation Xrotation
						End Site
						{
							OFFSET 0.0000 0.0000 5.5351
						}
					}
				}
			}
		}
	}
}
MOTION
Frames: 11
Frame Time: .0333333
-117.4 68.244 -1.592 -93.1826 86.6117 -64.4104 0 -0 0 -10.7311 9.68649 16.0504 14.5727 -10.5685 -6.03324e-05 35.0346 13.3959 18.7264 -180 76.3835 -180 3.64574 5.84021 0.185997 -12.111 22.7994 -8.1482e-05 -48.9033 31.6809 14.3002 2.41452e-06 -84.7024 -2.96539e-06 -16.2037 -1.67637 0.238692 10.4052 -10.6876 -24.2628 2.99077 -9.26203 -5.01489 -0 -0 47.7054 2.48118e-06 4.09524 -1.25527 -0.0898998 -1.86555e-08 -88.428 -12.6487 8.71743 -86.3024 -0 -0 71.4696 2.50216e-06 10.5663 -5.83128 -1.0857 -9.71679e-06 -12.2451 
-116.07 68.028 -1.6098 -92.4185 86.597 -63.5895 0 -0 0 -11.3292 9.58489 15.8955 15.0196 -10.3587 7.67254e-05 35.9241 13.3408 18.6994 -180 76.8622 -180 3.83894 5.73564 0.192398 -12.7849 22.5991 7.43142e-05 -48.7599 30.5698 13.6289 2.81426e-06 -84.173 -3.11647e-06 -15.8783 -1.61881 0.225804 10.5862 -10.5781 -24.4219 2.82216 -9.21593 -5.1665 -0 -0 48.9815 1.129e-06 4.0721 1.58174 0.112601 8.19628e-07 -88.8806 -12.6864 8.90789 -86.1681 -0 -0 72.9937 1.15286e-05 10.6474 -7.18949 -1.34781 1.83713e-06 -10.7453 
-114.77 67.84 -1.6431 -91.4858 86.6349 -62.571 0 -0 0 -11.9331 9.43972 15.7489 15.4902 -10.1255 3.44385e-05 36.9119 13.25 18.6876 -180 77.4307 -180 3.95247 5.61954 0.194098 -13.5119 22.3559 5.97486e-05 -48.5905 29.33 12.9191 1.79813e-06 -83.5826 -2.01189e-06 -15.5341 -1.5392 0.210004 10.7388 -10.4149 -24.5962 2.64098 -9.24953 -5.54309 -0 -0 50.4844 3.12899e-06 3.91313 4.46145 0.30491 -5.15433e-07 -88.4227 -12.7272 9.05889 -85.9738 -0 -0 74.3886 8.42014e-06 10.8112 -8.53187 -1.62276 -1.1623e-06 -9.79071 
-113.51 67.681 -1.6874 -90.4879 86.6951 -61.4595 0 -0 0 -12.5221 9.26145 15.6213 15.9728 -9.87702 4.41985e-05 37.997 13.1142 18.6805 -180 78.0968 -180 3.98524 5.50001 0.191496 -14.2591 22.0738 4.77201e-05 -48.4107 27.9454 12.1956 1.62225e-06 -82.9179 -1.83612e-06 -15.1799 -1.43919 0.191799 10.8649 -10.2084 -24.7992 2.46864 -9.34613 -6.13242 -0 -0 52.1888 -1.18372e-06 3.56214 7.21007 0.447597 -6.70624e-06 -86.8799 -12.7612 9.17974 -85.7372 -0 -0 75.6665 3.16134e-06 11.0382 -9.8162 -1.90485 -4.21605e-06 -9.42724 
-112.28 67.551 -1.7388 -89.4997 86.7348 -60.3312 0 -0 0 -13.0793 9.0585 15.5239 16.4547 -9.61659 -1.44755e-05 39.1861 12.9239 18.666 -180 78.8532 -180 3.94372 5.38267 0.185502 -15.0111 21.7371 0.000161599 -48.2282 26.4297 11.4658 2.06743e-06 -82.2003 -2.36998e-06 -14.8172 -1.31832 0.171395 10.9645 -9.96907 -25.0321 2.32092 -9.49709 -6.92034 -0 -0 54.0753 -7.56462e-06 2.97367 9.66525 0.499706 -4.31804e-06 -84.2629 -12.7828 9.28296 -85.4655 -0 -0 76.8359 -5.52655e-06 11.3039 -11.0166 -2.18754 -7.66354e-06 -9.63675 
-111.09 67.451 -1.7994 -88.3098 86.8236 -58.9843 0 -0 0 -13.6224 8.83213 15.4509 16.9339 -9.33273 -4.4163e-05 40.4832 12.662 18.631 -180 79.7014 -180 3.83629 5.26544 0.176499 -15.7643 21.3114 -0.000143653 -48.0375 24.8448 10.7116 1.87166e-06 -81.4415 -2.17437e-06 -14.4378 -1.17414 0.148697 11.047 -9.69895 -25.2896 2.17955 -9.714 -7.90842 -0 -0 56.1474 -1.11994e-05 2.127 11.6959 0.431402 -3.89371e-06 -80.758 -12.8132 9.37405 -85.1647 -0 -0 77.8972 3.88376e-05 11.5882 -12.1189 -2.46521 8.15204e-07 -10.3466 
-109.93 67.379 -1.8602 -87.1369 86.8852 -57.6482 0 -0 0 -14.1066 8.59636 15.425 17.3918 -9.04116 7.23338e-05 41.8903 12.3399 18.5582 -180 80.648 -180 3.67489 5.16166 0.165704 -16.483 20.8125 -0.000131537 -47.8616 23.1665 9.96656 6.63022e-07 -80.6213 -1.24811e-06 -14.0456 -1.0076 0.124104 11.1018 -9.41001 -25.5694 2.08802 -9.96182 -9.06076 -0 -0 58.3655 -2.73966e-07 0.9866 13.141 0.224298 -3.98091e-07 -76.5232 -12.8298 9.47722 -84.8359 -0 -0 78.862 2.51657e-05 11.8616 -13.1326 -2.73205 9.55739e-06 -11.427 
-108.8 67.335 -1.9203 -85.8614 86.9366 -56.2146 0 -0 0 -14.5314 8.35384 15.4436 17.8257 -8.74045 1.05992e-05 43.4071 11.9628 18.4376 -180 81.7039 -180 3.46903 5.07435 0.153801 -17.1542 20.2322 6.55393e-05 -47.7048 21.4189 9.23143 1.08683e-06 -79.7423 -1.30114e-06 -13.6328 -0.816507 0.0975991 11.1304 -9.10783 -25.8575 2.04469 -10.2339 -10.3655 -0 -0 60.719 1.33338e-06 -0.433407 13.918 -0.104299 3.50226e-07 -71.8473 -12.8449 9.6091 -84.4752 -0 -0 79.733 2.9372e-05 12.1043 -14.0697 -2.98445 -8.96679e-06 -12.7328 
-107.69 67.317 -1.9771 -84.4835 86.9674 -54.6909 0 -0 0 -14.8879 8.1083 15.5098 18.2292 -8.4324 -3.10417e-05 45.032 11.5412 18.2537 -180 82.8845 -180 3.22534 5.00669 0.141002 -17.7671 19.5708 -2.09936e-05 -47.5761 19.6258 8.51081 1.39782e-06 -78.8165 -1.70114e-06 -13.1986 -0.600395 0.0695016 11.1282 -8.79474 -26.1382 2.05939 -10.5125 -11.8049 -0 -0 63.1814 6.57838e-06 -2.09567 13.986 -0.506705 -3.50536e-07 -66.9597 -12.8582 9.78475 -84.0805 -0 -0 80.5146 -4.51101e-05 12.3022 -14.953 -3.2205 4.1968e-06 -14.1106 
-106.6 67.323 -2.0289 -82.9559 86.9753 -53.0402 0 -0 0 -15.1715 7.85923 15.6192 18.5991 -8.11934 -2.68719e-05 46.7535 11.0908 17.9974 -180 84.1851 -180 2.9439 4.96148 0.127601 -18.3078 18.838 -9.14149e-07 -47.4772 17.8058 7.81055 9.01844e-07 -77.8575 -1.1165e-06 -12.7382 -0.359593 0.0400994 11.0919 -8.47155 -26.3936 2.13543 -10.7825 -13.3648 -0 -0 65.7302 1.52198e-05 -3.93441 13.3444 -0.909494 6.41976e-06 -61.998 -12.8731 10.0191 -83.6442 -0 -0 81.2091 -0.000127627 12.4473 -15.804 -3.44009 -2.59069e-05 -15.4284 
-105.53 67.351 -2.0744 -81.3149 86.9441 -51.3022 0 -0 0 -15.3753 7.6027 15.7689 18.9353 -7.81228 5.84333e-05 48.5568 10.6359 17.6691 -180 85.6386 -180 2.61804 4.94488 0.113097 -18.7603 18.0737 0.000136353 -47.4154 15.9305 7.15885 0 -76.8502 0 -12.2525 -0.0939003 0.0100999 11.0186 -8.13717 -26.6067 2.27621 -11.029 -15.0323 -0 -0 68.337 -2.3726e-05 -5.86939 12.0447 -1.2289 -2.4471e-06 -57.1095 -12.8878 10.3195 -83.1653 -0 -0 81.8233 -5.91487e-05 12.5395 -16.643 -3.64481 -2.52365e-06 -16.5648 
